Coordinates
version=1
nRows=32
nColumns=22
inDegrees=yes

Units are S.I. units (second, meters, Newtons, ...)
If the header above contains a line with 'inDegrees', this indicates whether rotational values are in degrees (yes) or radians (no).

endheader
time	pelvis_tilt	pelvis_list	pelvis_rotation	pelvis_tx	pelvis_ty	pelvis_tz	hip_flexion_r	hip_adduction_r	hip_rotation_r	knee_angle_r	ankle_angle_r	subtalar_angle_r	hip_flexion_l	hip_adduction_l	hip_rotation_l	knee_angle_l	ankle_angle_l	subtalar_angle_l	lumbar_extension	lumbar_bending	lumbar_rotation
      2.20000000	    -11.05318093	     -0.64580567	     -2.94446984	     -0.51668002	      0.97309724	      0.28012170	     37.60014200	     -1.28026870	     -1.66227634	    -29.10192566	     14.01923159	      1.76906318	     15.22705089	      5.02714785	     -1.89306474	    -18.58734677	     20.81476918	     -6.35904919	      1.36082597	      0.75632444	      0.43954782
      2.21000000	    -11.02711109	     -0.68034154	     -2.86084963	     -0.51523256	      0.97302717	      0.28023968	     37.74866375	     -1.23983811	     -1.76072670	    -28.73976052	     13.81609198	      2.09788014	     15.11553719	      5.00379925	     -1.81741107	    -18.60513729	     20.89877594	     -6.52164478	      1.29894507	      0.77928833	      0.38143602
      2.22000000	    -11.00751534	     -0.65634232	     -2.79673954	     -0.51377704	      0.97291710	      0.28041225	     37.92210366	     -1.23593771	     -1.81950937	    -28.41132982	     13.60120255	      2.24868651	     14.99970133	      5.03803796	     -1.74871890	    -18.59723167	     20.97339116	     -6.56225454	      1.24901828	      0.72843042	      0.36994064
      2.23000000	    -10.99379459	     -0.62787956	     -2.73569716	     -0.51227162	      0.97278155	      0.28060871	     38.08993045	     -1.23207959	     -1.88335839	    -28.08271909	     13.43618870	      2.35046931	     14.88283254	      5.07197670	     -1.70275121	    -18.57957470	     21.07380323	     -6.58202879	      1.21369750	      0.67852338	      0.32241053
      2.24000000	    -10.97224713	     -0.64667146	     -2.63368038	     -0.51075371	      0.97266736	      0.28075679	     38.21794368	     -1.21704589	     -2.03932923	    -27.73043340	     13.31483863	      2.59780805	     14.77398381	      5.06613614	     -1.60733832	    -18.60245782	     21.15216422	     -6.62681520	      1.16520065	      0.68114875	      0.26803015
      2.25000000	    -10.96497583	     -0.61411211	     -2.57189956	     -0.50920298	      0.97250635	      0.28097894	     38.37379962	     -1.21851920	     -2.12236377	    -27.41015596	     13.19714327	      2.69025893	     14.66207559	      5.10272330	     -1.55774137	    -18.58873564	     21.24602038	     -6.63455724	      1.14290074	      0.62856804	      0.24326169
      2.26000000	    -10.95498782	     -0.62366365	     -2.46959229	     -0.50764713	      0.97236395	      0.28116649	     38.49710865	     -1.20924950	     -2.26888285	    -27.07390116	     13.09864046	      2.86749734	     14.56686330	      5.10346242	     -1.46478378	    -18.62100929	     21.32059808	     -6.64713016	      1.11137938	      0.61979783	      0.20073709
      2.27000000	    -10.95649742	     -0.59639424	     -2.40317050	     -0.50603779	      0.97219526	      0.28141935	     38.63569822	     -1.20541789	     -2.33647856	    -26.76337592	     12.99907845	      2.94965526	     14.46142992	      5.13231099	     -1.42002485	    -18.61151998	     21.41120890	     -6.64976293	      1.10380631	      0.57416807	      0.16993428
      2.28000000	    -10.95963818	     -0.58560379	     -2.32257856	     -0.50441304	      0.97203384	      0.28167590	     38.75814452	     -1.19562528	     -2.41954457	    -26.45308725	     12.88867136	      3.04612282	     14.36614783	      5.14608260	     -1.35228212	    -18.62382390	     21.49100947	     -6.64938389	      1.09637379	      0.54413368	      0.14307656
      2.29000000	    -10.96547097	     -0.57455900	     -2.24345864	     -0.50274901	      0.97186776	      0.28195524	     38.87334271	     -1.18568514	     -2.49940435	    -26.15671959	     12.79321546	      3.14065749	     14.27341872	      5.15733107	     -1.28925402	    -18.63949663	     21.56989561	     -6.64588246	      1.09563710	      0.51386477	      0.11951151
      2.30000000	    -10.97518666	     -0.56089249	     -2.16701853	     -0.50104169	      0.97169161	      0.28224491	     38.98225441	     -1.17955389	     -2.58370564	    -25.86985774	     12.70799998	      3.23170902	     14.18074840	      5.17031800	     -1.22619593	    -18.65354794	     21.64956805	     -6.63779686	      1.10314163	      0.48202787	      0.10133548
      2.31000000	    -10.98652059	     -0.56159436	     -2.07397890	     -0.49930823	      0.97150560	      0.28251561	     39.07903090	     -1.17733946	     -2.71310766	    -25.59175700	     12.65206697	      3.37634282	     14.10101089	      5.17066960	     -1.14910406	    -18.69400014	     21.72284856	     -6.61616582	      1.11183652	      0.46768741	      0.07515965
      2.32000000	    -11.00401423	     -0.52957837	     -2.01877124	     -0.49749918	      0.97129782	      0.28286086	     39.18187269	     -1.17901517	     -2.79351660	    -25.33464548	     12.60875517	      3.42702036	     13.99926533	      5.19572729	     -1.10612491	    -18.68479161	     21.81217679	     -6.60440091	      1.13916789	      0.41925400	      0.07455264
      2.33000000	    -11.02247471	     -0.51565244	     -1.94697650	     -0.49566665	      0.97108509	      0.28317821	     39.26922494	     -1.18096622	     -2.91644482	    -25.08240536	     12.58255379	      3.49190605	     13.90667057	      5.20678950	     -1.03558498	    -18.69635965	     21.90307420	     -6.58207351	      1.16472155	      0.39491849	      0.06377606
      2.34000000	    -11.04250687	     -0.50184322	     -1.87724969	     -0.49378909	      0.97086258	      0.28352789	     39.34805590	     -1.18058259	     -3.03285808	    -24.84269018	     12.58740299	      3.54114580	     13.81156487	      5.21292330	     -0.98118029	    -18.70509843	     21.99584289	     -6.55980572	      1.19515386	      0.36914279	      0.05672699
      2.35000000	    -11.06295531	     -0.49022233	     -1.80902358	     -0.49188160	      0.97063511	      0.28388461	     39.41665942	     -1.17677878	     -3.13527121	    -24.61436573	     12.60544724	      3.57657047	     13.71596306	      5.21629507	     -0.92899278	    -18.71590818	     22.09005421	     -6.53718111	      1.22448024	      0.35014449	      0.05357787
      2.36000000	    -11.08589986	     -0.47969847	     -1.74031706	     -0.48994316	      0.97040048	      0.28426544	     39.47796913	     -1.16857528	     -3.21018553	    -24.39949165	     12.62987722	      3.59376557	     13.61864136	      5.21559865	     -0.88685352	    -18.72079350	     22.18362914	     -6.51921964	      1.25698223	      0.33112192	      0.05674792
      2.37000000	    -11.11020079	     -0.47520943	     -1.67523457	     -0.48796105	      0.97016204	      0.28466356	     39.52817375	     -1.15157555	     -3.26490274	    -24.19599690	     12.65654500	      3.59939505	     13.52065810	      5.20822347	     -0.83334698	    -18.72957345	     22.28523028	     -6.50035812	      1.29130222	      0.32369266	      0.05447465
      2.38000000	    -11.13768368	     -0.47533205	     -1.60368175	     -0.48594203	      0.96991666	      0.28507104	     39.56993472	     -1.13059273	     -3.28874319	    -24.00635393	     12.68071210	      3.59304255	     13.42336303	      5.19513933	     -0.77997008	    -18.73746400	     22.38729505	     -6.48324755	      1.32943116	      0.32130106	      0.05083423
      2.39000000	    -11.16803633	     -0.47509209	     -1.53394939	     -0.48388616	      0.96966324	      0.28549670	     39.60371684	     -1.10619731	     -3.28822028	    -23.82863083	     12.70241025	      3.57638510	     13.32897048	      5.18185181	     -0.72478330	    -18.75084014	     22.48689264	     -6.46747144	      1.37007418	      0.32182067	      0.04389195
      2.40000000	    -11.20212058	     -0.48014494	     -1.45735980	     -0.48179911	      0.96940013	      0.28593573	     39.62924562	     -1.07758125	     -3.26272585	    -23.66271953	     12.72525532	      3.54615573	     13.23716167	      5.16258103	     -0.65962939	    -18.76536276	     22.59195683	     -6.44929330	      1.41219174	      0.32737523	      0.02986929
      2.41000000	    -11.23892504	     -0.47912277	     -1.38344959	     -0.47966160	      0.96912678	      0.28639398	     39.64670652	     -1.05158858	     -3.21571419	    -23.50750424	     12.75203608	      3.50915350	     13.14666053	      5.14821284	     -0.59409075	    -18.78395550	     22.69208836	     -6.43171744	      1.46029580	      0.32827135	      0.00952837
      2.42000000	    -11.27845518	     -0.47521134	     -1.30551578	     -0.47748810	      0.96884253	      0.28686744	     39.65550749	     -1.02848329	     -3.15045355	    -23.36000706	     12.78505745	      3.46377503	     13.05774855	      5.13604975	     -0.52421974	    -18.80419431	     22.79280043	     -6.41249900	      1.50982027	      0.32676087	     -0.01520224
      2.43000000	    -11.31854029	     -0.46675989	     -1.22772806	     -0.47526800	      0.96854968	      0.28735694	     39.65306809	     -1.00897847	     -3.07194239	    -23.21829951	     12.82404175	      3.41075720	     12.96769970	      5.12799786	     -0.45180774	    -18.82725187	     22.89273539	     -6.39134673	      1.56053982	      0.32261125	     -0.04467033
      2.44000000	    -11.35669504	     -0.45663605	     -1.14828654	     -0.47300455	      0.96825258	      0.28786042	     39.63569453	     -0.99141340	     -2.98286979	    -23.08000719	     12.86948487	      3.34123972	     12.87327583	      5.12097250	     -0.37369336	    -18.85101834	     22.99650961	     -6.36471004	      1.60795693	      0.31993517	     -0.07762311
      2.45000000	    -11.39520780	     -0.43945294	     -1.07427778	     -0.47068033	      0.96795129	      0.28839963	     39.60480128	     -0.97733075	     -2.88675315	    -22.94366098	     12.91666302	      3.28376879	     12.77720244	      5.11752170	     -0.30556204	    -18.87861130	     23.09137715	     -6.34364494	      1.65698210	      0.30896803	     -0.11166656
      2.46000000	    -11.43179825	     -0.42458269	     -0.99631569	     -0.46830911	      0.96764820	      0.28894756	     39.55759274	     -0.96308661	     -2.78278990	    -22.81076461	     12.97115686	      3.22124843	     12.67606520	      5.11141477	     -0.23459116	    -18.90486712	     23.19177737	     -6.32077470	      1.70263110	      0.30387660	     -0.14369210
      2.47000000	    -11.46695600	     -0.40946521	     -0.92052134	     -0.46587524	      0.96734490	      0.28950691	     39.49289966	     -0.94903070	     -2.67965199	    -22.67911670	     13.02958886	      3.15757744	     12.57110713	      5.10452592	     -0.16712693	    -18.93345970	     23.29210579	     -6.29619402	      1.74832104	      0.30367987	     -0.17624409
      2.48000000	    -11.46462413	     -0.41078112	     -0.84158870	     -0.46333961	      0.96710897	      0.29007762	     39.36359208	     -0.92628394	     -2.62059401	    -22.53897957	     13.08814546	      2.99918899	     12.41660413	      5.07893460	     -0.10020261	    -18.95690036	     23.40825099	     -6.22310426	      1.75188981	      0.32432158	     -0.20198081
      2.49000000	    -11.52097519	     -0.38309133	     -0.76640708	     -0.46079625	      0.96676652	      0.29065201	     39.29416612	     -0.92264769	     -2.50163710	    -22.41774317	     13.14179849	      2.97588683	     12.33022237	      5.08240335	     -0.05123162	    -18.98842317	     23.48654314	     -6.20750075	      1.82614820	      0.32017142	     -0.24427630
      2.50000000	    -11.57919355	     -0.35950747	     -0.68894930	     -0.45818415	      0.96641537	      0.29123892	     39.21186891	     -0.91885994	     -2.40301592	    -22.30341253	     13.20718640	      2.95155413	     12.23780543	      5.08046868	      0.00815886	    -19.01424341	     23.57962288	     -6.18000005	      1.90469061	      0.32053758	     -0.28358858
      2.51000000	    -11.64070242	     -0.33316731	     -0.60600453	     -0.45551657	      0.96605873	      0.29183649	     39.11749397	     -0.92082710	     -2.31773674	    -22.19283512	     13.26570748	      2.93174289	     12.14324166	      5.07957069	      0.06552585	    -19.03517075	     23.66990695	     -6.13897130	      1.98896268	      0.31999246	     -0.32871376
